#N canvas 63 101 450 300 12;
#X obj 175 103 osc~ 330;
#X obj 174 156 *~ 0.25;
#X obj 170 194 dac~;
#X obj 118 47 random 500;
#X obj 103 87 + 250;
#X obj 111 22 metro 200;
#X obj 32 20 loadbang;
#X msg 32 44 1;
#X obj 307 44 vsl 19 162 30 1000 0 0 empty empty Hz 0 -9 0 12 #00faff #000000 #000000 0 1;
#X obj 348 45 vsl 19 162 30 1000 0 0 empty empty BPM 0 -9 0 12 #c7c6ff #000000 #000000 0 1;
#X text 130 242 TEST WEBPD;
#X connect 0 0 1 0;
#X connect 1 0 2 0;
#X connect 1 0 2 1;
#X connect 3 0 4 0;
#X connect 4 0 0 0;
#X connect 5 0 3 0;
#X connect 6 0 7 0;
#X connect 7 0 5 0;
#X connect 8 0 3 1;
#X connect 9 0 5 1;
